P2
# chat.pgm nbre de ligne = 240 nbre de colonne = 320
5 5
255
1 1 1 1 1 
1 3 5 4 1 
1 4 6 5 1 
1 4 6 4 1 
1 1 1 1 1 
